<svg width="69" height="20" viewBox="0 0 69 20" fill="none" xmlns="http://www.w3.org/2000/svg">
<path d="M6.832 4.122V4.766C6.832 5.298 7.02333 5.816 7.406 6.32C7.798 6.824 8.32533 7.25333 8.988 7.608C9.66 7.96267 10.402 8.196 11.214 8.308L10.668 9.4C9.65067 9.24133 8.736 8.91467 7.924 8.42C7.12133 7.916 6.51933 7.30467 6.118 6.586C5.726 7.30467 5.124 7.916 4.312 8.42C3.5 8.91467 2.58067 9.24133 1.554 9.4L1.008 8.308C1.82933 8.196 2.57133 7.96267 3.234 7.608C3.906 7.25333 4.43333 6.82867 4.816 6.334C5.19867 5.83 5.39 5.30733 5.39 4.766V4.122H6.832ZM11.704 10.59V11.724H6.762V16.092H5.39V11.724H0.504V10.59H11.704ZM21.4763 6.838V3.702H22.8483V11.066H21.4763V7.958H19.2363V6.838H21.4763ZM18.7323 11.416C20.0203 11.416 21.033 11.626 21.7703 12.046C22.517 12.4567 22.8903 13.026 22.8903 13.754C22.8903 14.4913 22.5217 15.0653 21.7843 15.476C21.047 15.8867 20.0297 16.092 18.7323 16.092C17.4257 16.092 16.399 15.8867 15.6523 15.476C14.915 15.0653 14.5463 14.4913 14.5463 13.754C14.5463 13.026 14.9197 12.4567 15.6663 12.046C16.413 11.626 17.435 11.416 18.7323 11.416ZM18.7323 12.466C17.8457 12.466 17.155 12.578 16.6603 12.802C16.175 13.026 15.9323 13.3433 15.9323 13.754C15.9323 14.1553 16.175 14.468 16.6603 14.692C17.155 14.916 17.8457 15.028 18.7323 15.028C19.6097 15.028 20.2957 14.916 20.7903 14.692C21.285 14.468 21.5323 14.1553 21.5323 13.754C21.5323 13.3433 21.285 13.026 20.7903 12.802C20.2957 12.578 19.6097 12.466 18.7323 12.466ZM19.6283 4.556V5.662H17.0243V5.872C17.0243 6.66533 17.2857 7.40267 17.8083 8.084C18.331 8.76533 19.045 9.26467 19.9503 9.582L19.2643 10.674C18.5923 10.4313 18.009 10.0813 17.5143 9.624C17.0197 9.16667 16.637 8.63 16.3663 8.014C16.0863 8.714 15.685 9.32533 15.1623 9.848C14.6397 10.3613 14.0143 10.7487 13.2863 11.01L12.6003 9.918C13.2257 9.70333 13.767 9.386 14.2243 8.966C14.6817 8.546 15.0317 8.07 15.2743 7.538C15.517 6.99667 15.6383 6.44133 15.6383 5.872V5.662H12.9923V4.556H19.6283ZM34.3007 3.702V8.7H36.2327V9.848H34.3007V16.092H32.9287V3.702H34.3007ZM27.6087 5.62V3.87H28.9947V5.62H31.9207V6.74H24.6267V5.62H27.6087ZM28.3087 7.65C28.8967 7.65 29.424 7.77133 29.8907 8.014C30.3573 8.25667 30.7213 8.59733 30.9827 9.036C31.244 9.47467 31.3747 9.974 31.3747 10.534C31.3747 11.094 31.244 11.5933 30.9827 12.032C30.7213 12.4613 30.3573 12.802 29.8907 13.054C29.424 13.2967 28.8967 13.418 28.3087 13.418C27.73 13.418 27.2073 13.2967 26.7407 13.054C26.274 12.802 25.9053 12.4567 25.6347 12.018C25.3733 11.5793 25.2427 11.0847 25.2427 10.534C25.2427 9.974 25.3733 9.47467 25.6347 9.036C25.9053 8.59733 26.274 8.25667 26.7407 8.014C27.2073 7.77133 27.73 7.65 28.3087 7.65ZM28.3087 8.77C27.7953 8.77 27.3753 8.93333 27.0487 9.26C26.7313 9.57733 26.5727 10.002 26.5727 10.534C26.5727 11.0567 26.7313 11.4813 27.0487 11.808C27.3753 12.1253 27.7953 12.284 28.3087 12.284C28.822 12.284 29.242 12.1253 29.5687 11.808C29.8953 11.4813 30.0587 11.0567 30.0587 10.534C30.0587 10.0113 29.8953 9.58667 29.5687 9.26C29.242 8.93333 28.822 8.77 28.3087 8.77ZM46.999 3.702V16.092H45.627V3.702H46.999ZM43.345 5.004C43.345 6.94533 42.897 8.66267 42.001 10.156C41.105 11.64 39.6397 12.8767 37.605 13.866L36.891 12.774C38.4963 11.9993 39.705 11.066 40.517 9.974C41.329 8.87267 41.8003 7.58933 41.931 6.124H37.479V5.004H43.345Z" fill="#636363"/>
<path d="M58.1302 16.5591C58.09 16.6166 58.031 16.6581 57.9633 16.6765L57.8927 16.6957L54.1241 17.7193L53.893 17.7821C53.7121 17.8313 53.5309 17.7044 53.5153 17.5176L53.4953 17.279L53.1682 13.3876L53.1621 13.3147C53.1563 13.2448 53.1751 13.1751 53.2153 13.1177L60.8279 2.24575C60.923 2.11002 61.11 2.07704 61.2457 2.17207L65.6692 5.26939C65.8049 5.36442 65.8379 5.55148 65.7428 5.6872L58.1302 16.5591ZM59.197 6.84141C59.0613 6.74638 58.8742 6.77936 58.7792 6.91508L54.2423 13.3944C54.2021 13.4519 54.1833 13.5216 54.1891 13.5916L54.4114 16.238C54.4271 16.4247 54.6082 16.5515 54.789 16.5024L57.3519 15.8061C57.4196 15.7877 57.4787 15.7462 57.519 15.6887L62.0558 9.20939C62.1508 9.07367 62.1179 8.8866 61.9821 8.79157L59.197 6.84141ZM59.6969 5.60444C59.6019 5.74016 59.6349 5.92722 59.7706 6.02226L62.5557 7.97242C62.6914 8.06745 62.8785 8.03447 62.9735 7.89874L64.3501 5.93278C64.4451 5.79706 64.4122 5.60999 64.2764 5.51496L61.4913 3.5648C61.3556 3.46977 61.1685 3.50275 61.0735 3.63847L59.6969 5.60444Z" fill="#636363"/>
</svg>
